<?xml version="1.0" encoding="utf-8"?>
<svg xmlns="http://www.w3.org/2000/svg" style="margin: auto; background: rgb(255, 255, 255); display: block; shape-rendering: auto;" width="279" height="264" preserveAspectRatio="xMidYMid">
<style type="text/css">
  text {
    text-anchor: middle; font-size: 51px; opacity: 0;
  }
</style>
<g style="transform-origin: 139.5px 132px; transform: scale(1.7);">
<g transform="translate(139.5,132)">
  <g transform="translate(0,0)"><g class="path" style="transform: scale(1); transform-origin: -66.535px -2.1648px; animation: 1s linear -0.5775s infinite normal forwards running beat-5ece3487-16aa-4b5a-8e9b-9bfa3ecdeaca;"><path d="M14.46-5.64L14.46-5.64L14.46-5.64Q14.46-4.50 14.01-3.40L14.01-3.40L14.01-3.40Q13.56-2.30 12.60-1.44L12.60-1.44L12.60-1.44Q11.63-0.57 10.12-0.04L10.12-0.04L10.12-0.04Q8.61 0.48 6.50 0.48L6.50 0.48L6.50 0.48Q5.27 0.48 4.30 0.31L4.30 0.31L4.30 0.31Q3.33 0.13 2.62-0.07L2.62-0.07L2.62-0.07Q1.82-0.32 1.17-0.63L1.17-0.63L1.17-5.95L3.06-5.95L3.46-2.55L3.46-2.55Q3.49-2.37 3.64-2.17L3.64-2.17L3.64-2.17Q3.79-1.96 3.96-1.89L3.96-1.89L4.20-1.76L4.20-1.76Q4.42-1.66 4.80-1.53L4.80-1.53L4.80-1.53Q5.19-1.41 5.73-1.30L5.73-1.30L5.73-1.30Q6.28-1.20 6.99-1.20L6.99-1.20L6.99-1.20Q7.94-1.20 8.75-1.44L8.75-1.44L8.75-1.44Q9.57-1.68 10.15-2.14L10.15-2.14L10.15-2.14Q10.74-2.59 11.07-3.25L11.07-3.25L11.07-3.25Q11.40-3.91 11.40-4.75L11.40-4.75L11.40-4.75Q11.40-5.65 10.88-6.34L10.88-6.34L10.88-6.34Q10.36-7.02 9.57-7.55L9.57-7.55L9.57-7.55Q8.79-8.09 7.87-8.51L7.87-8.51L7.87-8.51Q6.94-8.94 6.12-9.33L6.12-9.33L6.12-9.33Q5.20-9.77 4.36-10.24L4.36-10.24L4.36-10.24Q3.52-10.71 2.88-11.32L2.88-11.32L2.88-11.32Q2.24-11.94 1.87-12.77L1.87-12.77L1.87-12.77Q1.49-13.59 1.49-14.74L1.49-14.74L1.49-14.74Q1.49-16.07 2.02-17.15L2.02-17.15L2.02-17.15Q2.55-18.24 3.48-19.01L3.48-19.01L3.48-19.01Q4.41-19.78 5.68-20.19L5.68-20.19L5.68-20.19Q6.94-20.61 8.42-20.61L8.42-20.61L8.42-20.61Q9.23-20.61 9.93-20.52L9.93-20.52L9.93-20.52Q10.63-20.43 11.26-20.30L11.26-20.30L11.26-20.30Q11.88-20.16 12.42-19.99L12.42-19.99L12.42-19.99Q12.96-19.82 13.45-19.67L13.45-19.67L13.71-19.58L13.71-14.91L12.00-14.91L11.54-17.78L11.54-17.78Q11.51-17.99 11.36-18.08L11.36-18.08L11.36-18.08Q11.21-18.18 11.07-18.31L11.07-18.31L11.07-18.31Q11.02-18.35 10.84-18.46L10.84-18.46L10.84-18.46Q10.66-18.57 10.35-18.69L10.35-18.69L10.35-18.69Q10.03-18.81 9.57-18.90L9.57-18.90L9.57-18.90Q9.10-18.98 8.47-18.98L8.47-18.98L8.47-18.98Q7.56-18.98 6.84-18.72L6.84-18.72L6.84-18.72Q6.12-18.46 5.63-17.98L5.63-17.98L5.63-17.98Q5.13-17.50 4.86-16.86L4.86-16.86L4.86-16.86Q4.58-16.22 4.58-15.45L4.58-15.45L4.58-15.45Q4.58-14.77 4.86-14.20L4.86-14.20L4.86-14.20Q5.13-13.64 5.66-13.16L5.66-13.16L5.66-13.16Q6.20-12.69 6.97-12.28L6.97-12.28L6.97-12.28Q7.75-11.87 8.76-11.48L8.76-11.48L8.76-11.48Q10.12-10.97 11.18-10.42L11.18-10.42L11.18-10.42Q12.25-9.86 12.97-9.17L12.97-9.17L12.97-9.17Q13.70-8.48 14.08-7.62L14.08-7.62L14.08-7.62Q14.46-6.77 14.46-5.64" fill="#333333" stroke="none" stroke-width="none" transform="translate(-74.35000038146973,7.900204334259033)" style="fill: rgb(51, 51, 51);"></path></g><g class="path" style="transform: scale(1); transform-origin: -49.735px -2.16479px; animation: 1s linear -0.495s infinite normal forwards running beat-5ece3487-16aa-4b5a-8e9b-9bfa3ecdeaca;"><path d="M33.12-15.34L31.35-15.34L30.92-18.15L30.92-18.15Q30.88-18.38 30.75-18.52L30.75-18.52L30.75-18.52Q30.63-18.66 30.42-18.66L30.42-18.66L26.13-18.66L26.13-2.07L26.13-2.07Q26.13-1.85 26.29-1.64L26.29-1.64L26.29-1.64Q26.44-1.44 26.76-1.41L26.76-1.41L28.68-1.29L28.68 0L20.55 0L20.55-1.29L22.47-1.41L22.47-1.41Q22.79-1.44 22.95-1.64L22.95-1.64L22.95-1.64Q23.10-1.85 23.10-2.07L23.10-2.07L23.10-18.66L18.78-18.66L18.78-18.66Q18.57-18.66 18.44-18.52L18.44-18.52L18.44-18.52Q18.30-18.38 18.27-18.15L18.27-18.15L17.86-15.34L16.11-15.34L16.11-20.13L33.12-20.13L33.12-15.34" fill="#333333" stroke="none" stroke-width="none" transform="translate(-74.35000038146973,7.900204334259033)" style="fill: rgb(148, 119, 90);"></path></g><g class="path" style="transform: scale(1); transform-origin: -30.005px -1.9248px; animation: 1s linear -0.4125s infinite normal forwards running beat-5ece3487-16aa-4b5a-8e9b-9bfa3ecdeaca;"><path d="M54.16-18.84L52.41-18.72L52.41-18.72Q52.09-18.69 51.94-18.49L51.94-18.49L51.94-18.49Q51.78-18.28 51.78-18.06L51.78-18.06L51.78-6.67L51.78-6.67Q51.78-4.82 51.28-3.47L51.28-3.47L51.28-3.47Q50.79-2.12 49.81-1.25L49.81-1.25L49.81-1.25Q48.84-0.37 47.40 0.06L47.40 0.06L47.40 0.06Q45.95 0.48 44.08 0.48L44.08 0.48L44.08 0.48Q40.36 0.48 38.55-1.32L38.55-1.32L38.55-1.32Q36.75-3.12 36.75-6.67L36.75-6.67L36.75-18.06L36.75-18.06Q36.75-18.28 36.60-18.49L36.60-18.49L36.60-18.49Q36.45-18.69 36.12-18.72L36.12-18.72L34.53-18.84L34.53-20.13L42.16-20.13L42.16-18.84L40.44-18.72L40.44-18.72Q40.12-18.69 39.97-18.49L39.97-18.49L39.97-18.49Q39.81-18.28 39.81-18.06L39.81-18.06L39.81-7.44L39.81-7.44Q39.81-6.12 40.02-5.03L40.02-5.03L40.02-5.03Q40.22-3.94 40.78-3.16L40.78-3.16L40.78-3.16Q41.34-2.39 42.33-1.96L42.33-1.96L42.33-1.96Q43.32-1.52 44.88-1.52L44.88-1.52L44.88-1.52Q46.44-1.52 47.43-1.98L47.43-1.98L47.43-1.98Q48.43-2.43 49.00-3.23L49.00-3.23L49.00-3.23Q49.57-4.03 49.79-5.11L49.79-5.11L49.79-5.11Q50.01-6.20 50.01-7.44L50.01-7.44L50.01-18.06L50.01-18.06Q50.01-18.28 49.84-18.49L49.84-18.49L49.84-18.49Q49.67-18.69 49.35-18.72L49.35-18.72L47.64-18.84L47.64-20.13L54.16-20.13L54.16-18.84" fill="#333333" stroke="none" stroke-width="none" transform="translate(-74.35000038146973,7.900204334259033)" style="fill: rgb(51, 51, 51);"></path></g><g class="path" style="transform: scale(1); transform-origin: -8.635px -2.16479px; animation: 1s linear -0.33s infinite normal forwards running beat-5ece3487-16aa-4b5a-8e9b-9bfa3ecdeaca;"><path d="M75.72-18.84L74.05-18.72L74.05-18.72Q73.73-18.69 73.57-18.49L73.57-18.49L73.57-18.49Q73.42-18.28 73.42-18.06L73.42-18.06L73.42 0L71.07 0L59.91-16.80L59.91-2.07L59.91-2.07Q59.91-1.85 60.07-1.64L60.07-1.64L60.07-1.64Q60.22-1.44 60.54-1.41L60.54-1.41L62.26-1.29L62.26 0L55.77 0L55.77-1.29L57.48-1.41L57.48-1.41Q57.80-1.44 57.97-1.64L57.97-1.64L57.97-1.64Q58.14-1.85 58.14-2.07L58.14-2.07L58.14-18.06L58.14-18.06Q58.14-18.28 57.97-18.49L57.97-18.49L57.97-18.49Q57.80-18.69 57.48-18.72L57.48-18.72L55.71-18.84L55.71-20.13L61.66-20.13L61.66-19.38L71.65-4.29L71.65-18.06L71.65-18.06Q71.65-18.28 71.48-18.49L71.48-18.49L71.48-18.49Q71.32-18.69 71.02-18.72L71.02-18.72L69.30-18.84L69.30-20.13L75.72-20.13L75.72-18.84" fill="#333333" stroke="none" stroke-width="none" transform="translate(-74.35000038146973,7.900204334259033)" style="fill: rgb(148, 119, 90);"></path></g><g class="path" style="transform: scale(1); transform-origin: 12.995px -2.16479px; animation: 1s linear -0.2475s infinite normal forwards running beat-5ece3487-16aa-4b5a-8e9b-9bfa3ecdeaca;"><path d="M97.35-18.84L95.68-18.72L95.68-18.72Q95.36-18.69 95.21-18.49L95.21-18.49L95.21-18.49Q95.05-18.28 95.05-18.06L95.05-18.06L95.05 0L92.71 0L81.55-16.80L81.55-2.07L81.55-2.07Q81.55-1.85 81.70-1.64L81.70-1.64L81.70-1.64Q81.86-1.44 82.18-1.41L82.18-1.41L83.89-1.29L83.89 0L77.40 0L77.40-1.29L79.12-1.41L79.12-1.41Q79.44-1.44 79.61-1.64L79.61-1.64L79.61-1.64Q79.78-1.85 79.78-2.07L79.78-2.07L79.78-18.06L79.78-18.06Q79.78-18.28 79.61-18.49L79.61-18.49L79.61-18.49Q79.44-18.69 79.12-18.72L79.12-18.72L77.34-18.84L77.34-20.13L83.29-20.13L83.29-19.38L93.28-4.29L93.28-18.06L93.28-18.06Q93.28-18.28 93.12-18.49L93.12-18.49L93.12-18.49Q92.96-18.69 92.65-18.72L92.65-18.72L90.94-18.84L90.94-20.13L97.35-20.13L97.35-18.84" fill="#333333" stroke="none" stroke-width="none" transform="translate(-74.35000038146973,7.900204334259033)" style="fill: rgb(51, 51, 51);"></path></g><g class="path" style="transform: scale(1); transform-origin: 28.835px -2.16479px; animation: 1s linear -0.165s infinite normal forwards running beat-5ece3487-16aa-4b5a-8e9b-9bfa3ecdeaca;"><path d="M107.14 0L99.23 0L99.23-1.29L101.02-1.41L101.02-1.41Q101.34-1.44 101.49-1.64L101.49-1.64L101.49-1.64Q101.65-1.85 101.65-2.07L101.65-2.07L101.65-18.06L101.65-18.06Q101.65-18.28 101.49-18.47L101.49-18.47L101.49-18.47Q101.34-18.66 101.02-18.69L101.02-18.69L99.23-18.81L99.23-20.13L107.14-20.13L107.14-18.81L105.31-18.69L105.31-18.69Q105-18.66 104.84-18.47L104.84-18.47L104.84-18.47Q104.68-18.28 104.68-18.06L104.68-18.06L104.68-2.07L104.68-2.07Q104.68-1.85 104.84-1.64L104.84-1.64L104.84-1.64Q105-1.44 105.31-1.41L105.31-1.41L107.14-1.29L107.14 0" fill="#333333" stroke="none" stroke-width="none" transform="translate(-74.35000038146973,7.900204334259033)" style="fill: rgb(148, 119, 90);"></path></g><g class="path" style="transform: scale(1); transform-origin: 44.535px -2.16479px; animation: 1s linear -0.0825s infinite normal forwards running beat-5ece3487-16aa-4b5a-8e9b-9bfa3ecdeaca;"><path d="M128.89-18.84L127.22-18.72L127.22-18.72Q126.90-18.69 126.75-18.49L126.75-18.49L126.75-18.49Q126.59-18.28 126.59-18.06L126.59-18.06L126.59 0L124.25 0L113.09-16.80L113.09-2.07L113.09-2.07Q113.09-1.85 113.24-1.64L113.24-1.64L113.24-1.64Q113.39-1.44 113.72-1.41L113.72-1.41L115.43-1.29L115.43 0L108.94 0L108.94-1.29L110.65-1.41L110.65-1.41Q110.98-1.44 111.15-1.64L111.15-1.64L111.15-1.64Q111.31-1.85 111.31-2.07L111.31-2.07L111.31-18.06L111.31-18.06Q111.31-18.28 111.15-18.49L111.15-18.49L111.15-18.49Q110.98-18.69 110.65-18.72L110.65-18.72L108.88-18.84L108.88-20.13L114.83-20.13L114.83-19.38L124.82-4.29L124.82-18.06L124.82-18.06Q124.82-18.28 124.66-18.49L124.66-18.49L124.66-18.49Q124.50-18.69 124.19-18.72L124.19-18.72L122.48-18.84L122.48-20.13L128.89-20.13L128.89-18.84" fill="#333333" stroke="none" stroke-width="none" transform="translate(-74.35000038146973,7.900204334259033)" style="fill: rgb(51, 51, 51);"></path></g><g class="path" style="transform: scale(1); transform-origin: 66.055px -2.1648px; animation: 1s linear 0s infinite normal forwards running beat-5ece3487-16aa-4b5a-8e9b-9bfa3ecdeaca;"><path d="M149.87-8.42L148.34-8.28L148.34-8.28Q148.02-8.25 147.87-8.06L147.87-8.06L147.87-8.06Q147.71-7.88 147.71-7.65L147.71-7.65L147.71-0.72L147.71-0.72Q146.81-0.38 145.78-0.12L145.78-0.12L145.78-0.12Q144.90 0.12 143.77 0.30L143.77 0.30L143.77 0.30Q142.63 0.48 141.42 0.48L141.42 0.48L141.42 0.48Q139.75 0.48 138.32 0.09L138.32 0.09L138.32 0.09Q136.89-0.31 135.73-1.03L135.73-1.03L135.73-1.03Q134.56-1.74 133.67-2.73L133.67-2.73L133.67-2.73Q132.77-3.72 132.17-4.89L132.17-4.89L132.17-4.89Q131.56-6.06 131.25-7.39L131.25-7.39L131.25-7.39Q130.94-8.72 130.94-10.11L130.94-10.11L130.94-10.11Q130.94-12.47 131.69-14.41L131.69-14.41L131.69-14.41Q132.44-16.35 133.84-17.72L133.84-17.72L133.84-17.72Q135.25-19.10 137.26-19.86L137.26-19.86L137.26-19.86Q139.28-20.61 141.80-20.61L141.80-20.61L141.80-20.61Q142.56-20.61 143.27-20.53L143.27-20.53L143.27-20.53Q143.98-20.45 144.64-20.32L144.64-20.32L144.64-20.32Q145.30-20.20 145.93-20.04L145.93-20.04L147.19-19.72L147.69-19.58L147.69-14.74L145.88-14.74L145.40-17.43L145.40-17.43Q145.36-17.70 145.18-17.88L145.18-17.88L145.18-17.88Q145.00-18.06 144.80-18.15L144.80-18.15L144.80-18.15Q144.74-18.16 144.62-18.22L144.62-18.22L144.62-18.22Q144.39-18.33 144.08-18.44L144.08-18.44L144.08-18.44Q143.77-18.56 143.40-18.67L143.40-18.67L143.40-18.67Q143.03-18.78 142.60-18.85L142.60-18.85L142.60-18.85Q142.16-18.93 141.68-18.93L141.68-18.93L141.68-18.93Q140.05-18.93 138.71-18.35L138.71-18.35L138.71-18.35Q137.36-17.78 136.39-16.68L136.39-16.68L136.39-16.68Q135.42-15.59 134.89-13.97L134.89-13.97L134.89-13.97Q134.36-12.35 134.36-10.25L134.36-10.25L134.36-10.25Q134.36-8.10 134.90-6.42L134.90-6.42L134.90-6.42Q135.44-4.73 136.44-3.57L136.44-3.57L136.44-3.57Q137.45-2.42 138.87-1.81L138.87-1.81L138.87-1.81Q140.29-1.20 142.05-1.20L142.05-1.20L142.05-1.20Q142.54-1.20 143.00-1.27L143.00-1.27L143.00-1.27Q143.45-1.35 143.80-1.43L143.80-1.43L143.80-1.43Q144.16-1.51 144.39-1.58L144.39-1.58L144.39-1.58Q144.62-1.66 144.68-1.66L144.68-1.66L144.68-7.65L144.68-7.65Q144.68-7.88 144.53-8.06L144.53-8.06L144.53-8.06Q144.38-8.25 144.05-8.28L144.05-8.28L142.05-8.42L142.05-9.73L149.87-9.73L149.87-8.42" fill="#333333" stroke="none" stroke-width="none" transform="translate(-74.35000038146973,7.900204334259033)" style="fill: rgb(148, 119, 90);"></path></g></g>
</g>
</g>
<style id="beat-5ece3487-16aa-4b5a-8e9b-9bfa3ecdeaca" data-anikit="">@keyframes beat-5ece3487-16aa-4b5a-8e9b-9bfa3ecdeaca
{
  0% {
    animation-timing-function: cubic-bezier(0.1028,0.2484,0.1372,0.849);
    transform: scale(1);
  }
  34% {
    animation-timing-function: cubic-bezier(0.7116,0.2095,0.8159,0.6876);
    transform: scale(1.2);
  }
  68% {
    animation-timing-function: cubic-bezier(0.1475,0.2888,0.294,0.883);
    transform: scale(1.0268);
  }
  84% {
    animation-timing-function: cubic-bezier(0.8176,0.2193,0.867,0.6889);
    transform: scale(1.0932);
  }
  100% {
    transform: scale(1);
  }
}</style></svg>